<svg width="582" height="536" viewBox="0 0 582 536" fill="none" xmlns="http://www.w3.org/2000/svg">
<path d="M218.533 1.13361C220.533 -0.199765 229.866 2.60042 237.066 6.6004C239.466 7.93371 243.2 8.99971 245.333 8.99982C252.4 8.99982 264 16.2004 264 20.6004C264.001 21.5339 266.4 23.5334 269.333 24.9998C275.6 28.1998 279.466 33.7999 280.8 41.533C281.2 44.5997 283.333 48.8664 285.467 51.2664C289.067 55.5331 289.2 56.067 289.2 70.6004C289.2 86.8668 287.733 92.0669 281.467 97.4002C279.6 99.0002 277.2 102.733 276.267 105.667C275.2 108.6 273.6 112.866 272.667 115C269.467 122.2 269.334 126.333 272.134 131.933C273.6 134.733 274.933 139.401 275.066 142.067C275.333 146.467 274.933 147 272 147.4C266.667 148.2 265.067 150.334 266 155.4C266.8 159.933 264.8 164.334 262.533 162.867C261.867 162.467 261.333 163.4 261.333 164.867C261.333 166.467 260.133 168.333 258.533 169.266C257.067 170.2 254.534 173.133 252.934 175.667C247.734 184.333 244.8 185.133 232 181.667C227.334 180.467 224.267 180.2 223.467 181C222.8 181.666 222.267 185.4 222.267 189.266C222.4 195.4 222.934 196.733 226.667 199.8C231.334 203.8 234.534 204.6 249.2 205.667C254.933 206.2 261.6 207.666 265.2 209.266C271.2 212.066 287.999 227.8 288 230.733C288 231.533 288.933 233.134 290 234.334C291.067 235.535 295.467 243.267 299.733 251.667C304 260.067 310.133 271.533 313.333 277L319.066 287L332.533 273.8C347.066 259.533 353.867 254.334 363.333 250.334C379.6 243.4 392.667 249.8 402.533 269.667C407.867 280.333 416 298.067 416 298.867C416.002 301.804 446.134 362.601 453.733 374.867C465.333 393.8 484.934 423.533 486.667 425C487.067 425.4 491.334 430.733 496 437C509.867 455.4 537.2 487.533 547.733 498.066C556.933 507.133 561.6 510.467 566.667 511.134C567.734 511.267 570.401 512.067 572.667 513C582.667 516.866 584.266 523.4 576.267 527.533C562.533 534.466 543.867 533.266 528.134 524.467C516.667 517.933 511.2 516.867 498 518.6C485.067 520.2 478.934 518.333 474.667 511.4C472.4 507.667 472 504.733 472 492.2C472 482.333 471.334 475.8 470.134 472.733C466.667 464.733 456.8 452.6 444 441C420.533 419.8 387.733 387 382 379C375.2 369.4 368.934 357.133 366.667 349C365.734 345.667 364.8 342.2 364.533 341.134C363.867 338.867 336.135 394.198 335.467 399.266C335.333 400.2 334.667 401.4 334.134 401.933C331.334 404.733 326.267 419.667 328.134 419.667C328.8 419.667 329.333 419.134 329.333 418.6C329.333 417.934 336.4 417.267 345.066 417.134C375.066 416.734 406.267 427.134 422 442.867C431.6 452.334 433.733 457 433.733 467.667C433.6 479.4 430 487 420.4 495.533C412.4 502.733 406.533 505.933 390.4 511.8C379.334 515.933 353.867 521 344.667 521C341.601 521 338.8 521.4 338.267 521.8C337.867 522.2 324.666 522.866 309.066 523.266C291.067 523.666 280.4 524.333 279.866 525.266C279.333 526.066 277.466 526.333 275.333 525.8C271.597 524.867 230.269 531.133 229.733 532.733C229.467 533.267 226.533 533.534 223.066 533.4C219.467 533.267 215.734 533.4 214.667 533.933C213.6 534.333 209.067 534.867 204.667 535.134C200.267 535.267 196.133 535.666 195.333 535.8C194.665 535.799 189.599 535.267 184.4 534.334C173.868 532.601 134.404 533.267 133.733 535.266C133.467 535.8 129.467 536.067 124.667 535.933C117.467 535.533 116 535 115.2 532.733C114 528.867 118.267 523.666 126.134 519.533C129.733 517.667 133.066 516.201 133.6 516.6C134.266 516.867 155.199 503.8 159.866 500.066C160.133 499.933 158.934 498.466 156.934 497C151.867 493 142.134 477.4 138.667 467.667C136 460.467 135.466 456.467 135.6 443.667C135.6 424.334 138.8 412.333 151.333 384.334C152.266 382.067 154.267 376.467 155.733 371.667C162.133 350.867 160.933 337 150.533 309C148.533 303.534 146.667 298.201 146.4 297.134C146.134 296.067 144.933 299.133 143.733 303.8C142.533 308.466 140.267 317.133 138.667 323C137.067 328.866 135.333 335.533 134.8 337.667C132.8 345.267 123.734 376.331 122.667 379C119.067 387.933 103.2 422.067 101.866 423.667C100.532 425.403 86.3993 453.936 68.9336 490.334C62.4003 504.067 56.5333 510.6 46 515.933C36.1334 521 19.333 522.867 17.8662 519.134C17.3329 517.8 17.9999 515.8 19.333 514.334C21.8663 511.534 21.3334 511.133 16.4004 512.467C14.6673 513 13.5999 513.667 13.8662 514.2C14.1329 514.6 11.2001 515.134 7.2002 515.4L0 515.667V507C3.72012e-10 498.467 -0.000153257 498.333 5.06641 495.266C11.4664 491.4 14.6667 489.933 26 485.667C40.4 480.2 43.0665 478.867 46.7998 474.733C50.7998 470.467 54.9335 463 55.4668 459C55.8669 456.466 57.6006 450.6 60.1338 444.334C61.0671 441.667 61.2001 441 61.7334 433.134C61.8667 431.001 62.3998 429.534 62.7998 429.8C63.5998 430.2 64 428.066 66 415.266C66.4 413.266 67.2001 410.6 67.7334 409.266C68.4 408.066 69.3329 404.333 69.8662 401.134C71.0662 393.534 74.667 381.933 82.667 360.2C88.267 345 91.7334 331.8 91.7334 325C91.8669 323.932 93.0671 314.6 94.667 304.334C96.1336 294.201 97.0668 284.868 96.667 283.933C96.267 282.867 96.5331 281.267 97.0664 280.467C97.7331 279.667 98.9329 273 99.8662 265.533C105.733 215.4 113.2 205.4 152.8 194.467C163.733 191.533 176.667 177.934 181.2 164.6L183.866 157L179.467 158.867C177.067 159.934 172.533 160.6 169.333 160.467C164.8 160.2 162.8 159.267 160 156.067C157.867 153.801 154 150.866 151.333 149.533C144.267 146.2 139.333 140.6 137.333 133.933C136.4 130.2 133.466 125.4 129.866 121.533C126.667 118.067 124 114.201 124 112.867C124 111.534 123.467 110.067 122.667 109.667C120.934 108.6 120.933 101.933 122.8 97.7996C124.133 95.1331 123.867 92.8666 122 86.867C118 74.067 122.4 56.4671 131.733 48.867C133.867 47.1337 137.067 43.0002 138.934 39.6668C143.067 32.4669 145.467 30.1999 153.333 26.2C156.666 24.4667 162.133 20.3337 165.467 16.867C174 8.06702 183.2 3.66681 192.934 3.66681C197.2 3.66683 201.467 4.20039 202.533 4.867C203.6 5.53362 205.733 5.2665 207.866 4.20001C209.733 3.13337 212.533 2.33381 214 2.3338C215.467 2.3338 217.466 1.80018 218.533 1.13361ZM367.333 425.667C357.2 423.4 341.733 423.266 330 425.533C321.2 427.266 322.933 425.4 308.8 447.933C303.333 456.733 296.8 465.533 293.333 469C292.266 470.067 288.8 474.067 285.6 477.933L280 484.867L288.267 481.4C292.933 479.534 302.934 474.866 310.667 471C339.867 456.2 353.733 451.667 369.733 451.667C377.733 451.667 381.466 452.2 382.533 453.533C383.867 455.133 382.667 455.533 375.733 456.2C364.133 457.4 346.667 461.267 346.667 462.6C346.667 463.267 346.133 463.533 345.467 463.134C343.867 462.067 338.266 464.467 305.066 480.2C298 483.533 291.733 486.334 291.333 486.334C290.53 486.335 279.333 491.134 275.733 493.134C274.4 493.8 272.267 494.334 270.934 494.334C269.467 494.334 266.267 495.8 263.733 497.533C255.6 503 239.467 510.2 229.467 512.867C222.133 514.867 216 515.4 203.6 515.134C187.867 514.867 186.933 514.6 176.667 509.8C164.534 504.2 162.8 504.2 153.733 511.134C150.267 513.667 142 518.466 135.333 521.533C128.533 524.733 122.667 527.934 122.267 528.6C121.336 530.2 140.668 529.267 150.934 527.134C156.267 526.067 162.533 525.934 172.267 526.867C194.133 528.867 222.667 528.333 222.667 526.066C222.667 525.533 223.467 525.4 224.533 525.8C225.467 526.2 231.333 525.533 237.467 524.467C243.6 523.267 250.933 522.067 253.733 521.667C256.533 521.4 259.334 520.733 260.134 520.2C260.935 519.8 265.601 519.266 270.4 519C275.334 518.733 284.134 517.933 290 517.266C296 516.466 303.2 516.2 306.267 516.6C309.333 517 318.933 516.6 327.6 515.533C336.266 514.6 345.334 513.933 347.867 514.066C350.267 514.199 355.067 513.534 358.533 512.6C361.866 511.534 365.466 511 366.533 511.4C367.6 511.667 368 511.534 367.6 510.867C367.2 510.2 368.267 509.533 369.733 509.533C375.333 509.133 380.8 508.066 383.333 506.733C384.8 505.933 386.267 505.266 386.667 505.266C393.6 505 409.467 496.867 417.467 489.4C424 483.267 428 475 428 467.4C428 461.534 423.467 454.066 416 447.266C405.867 438.2 389.333 430.867 367.333 425.667ZM264.934 81.4002C262 77.0002 260 75.8005 260 78.3338C259.999 80.3345 251.733 88.4672 247.333 90.6004C245.066 91.8004 240.133 93.4005 236.267 94.3338C230.667 95.6671 229.2 96.6003 228.533 99.1336C226.933 105.267 214.133 113.4 206 113.266C201.333 113.133 199.2 114.734 196.4 120.067C194.534 123.667 194.667 124.467 196.8 129.266C198.133 132.333 200.534 135.133 202.4 135.8C204.133 136.466 205.333 137.8 204.934 138.733C204.4 140.333 202.666 140.466 197.866 139C195.6 138.333 194.667 139.001 192.934 142.6C191.867 145 190.533 150.2 190 154.2C187.2 176.867 164.8 202.334 148 202.334C145.733 202.334 142.933 202.866 141.6 203.533C140.4 204.2 137.6 205.533 135.6 206.467C128.933 209.534 116.4 221.933 114 227.933C110.133 237.267 107.6 251.4 105.333 275C103.333 295.266 100.8 315.8 97.8662 333.667C97.4662 336.6 96.4001 340.066 95.7334 341.533C94.6668 343.4 94.8001 343.8 96.2666 342.867C97.5998 342.067 97.7333 342.2 96.4004 343.8C93.6004 347.4 78.933 390.734 75.333 406.334C63.7332 457.399 59.3334 469.4 48.4004 479.8C42.0004 485.933 38.6663 487.8 25.333 492.867C15.4669 496.733 7.86715 500.866 4.93359 504.066C2.13366 507.399 2.80012 508.334 6.5332 506.334C8.1332 505.534 10.0003 505.267 10.667 505.667C11.4679 506.2 16.6677 504.733 22.4004 502.6C34.4002 497.934 37.1997 497.267 37.0664 498.867C37.0666 499.534 37.8671 500.467 38.667 501C39.8667 501.667 38.5332 503.8 34.667 507.533C30.4003 511.666 29.3337 513.534 30.4004 514.6C31.6005 515.8 33.8672 515.133 39.5996 512.334C50.5329 506.867 59.7331 498.867 60.5332 493.933C60.6665 493.133 61.9997 490.2 63.333 487.667C64.7992 485.134 65.9991 482.735 66 482.334C66.6667 479.667 75.4667 461.133 83.7334 445C97.1997 418.867 112.666 388.068 115.066 382.334C119.733 371.401 120.933 368.067 121.733 363.667C122.267 361.134 122.666 358.735 122.533 358.334C122.533 357.934 123.2 355.8 124 353.667C124.933 351.4 125.733 348.466 126 347C126.133 345.533 126.933 341.933 127.733 339C128.533 336.066 131.6 324.067 134.667 312.334C137.734 300.601 140.8 288.868 141.467 286.334C142.267 283.801 143.467 279.134 144.134 276.067C146.267 267.534 152.8 251 154.134 251.266C155.467 251.8 155.467 257.934 154 263C153.333 265.133 152.667 267.933 152.533 269C152.267 270.066 151.333 274.467 150.267 278.6C147.6 289.267 147.466 288.334 155.6 306.334C157.866 311.134 160.266 317.134 161.066 319.667C161.733 322.2 163.066 326.467 163.866 329.134C166.933 338.867 165.333 367 161.333 377.667C160.666 379.134 159.6 382.467 158.667 385C157.734 387.533 156 392.066 154.533 395C150.267 404.333 144.266 422.066 143.066 429C141.6 437.666 142.534 456.867 144.667 463.134C148.667 474.867 152.133 480.601 161.333 490.334C169.066 498.334 182.133 506.2 188 506.066C189.067 506.066 192.933 506.734 196.533 507.4C200.133 508.2 204.399 508.6 205.866 508.334C207.466 508.067 211.733 507.4 215.333 506.867C219.066 506.334 223.2 505.8 224.667 505.667C229.201 505.267 248.267 498.333 256.134 494.2C274.534 484.333 292.667 464.466 311.333 433.667C316.533 425 332 393.133 332 391C332.001 388.332 345.067 361.8 355.066 344.334C359.466 336.467 363.6 327.133 364.8 321.933C366 317 367.6 313 368.134 313C368.8 313.002 369.333 317.402 369.333 322.6C369.333 335.667 376 358.334 381.733 365.134C382.933 366.467 384 368.6 384 369.667C384.001 372.068 416.401 404.867 443.867 430.467C464.534 449.8 474.133 461.133 475.467 468.467C475.867 471 476.8 473.399 477.467 473.8C478.133 474.2 478.267 480.467 478 487.667C477.2 502.733 478.8 508.6 484.667 512.467C487.867 514.6 488.933 514.6 493.733 513.134C505.067 509.667 518.4 511.667 528 518.334C530.8 520.201 540 523.933 544 524.733C551.467 526.333 564.667 525.533 569.733 523L574.934 520.6L571.733 518.867C570.133 517.934 567.6 517.133 566.267 517C562.133 517 552.8 511.8 547.333 506.6C537.066 496.6 514.267 471.8 504.533 459.933C503.2 458.2 500.933 455.533 499.467 453.933C498.133 452.333 493.733 446.466 489.6 441C485.467 435.534 481.733 430.734 481.333 430.334C480.4 429.667 470.4 415.266 466.667 409.533C448.8 381.8 438.534 363.4 424.134 333.667C415.201 315.401 404.001 290.868 404 289.667C404 289.133 402.534 285.533 400.667 281.533C398.8 277.533 397.334 273.933 397.2 273.266C396.933 271.532 392.133 263 389.733 260.2C383.733 252.867 371.734 251.134 362.134 256.067C353.867 260.467 333.067 280.066 311.733 303.8C306.933 309.266 299.867 317 296.267 321.134C287.467 330.6 269.2 353.667 253.733 374.467C247.067 383.533 239.201 393.666 236.4 397C228.934 405.666 215.866 418.6 215.066 417.933C214.8 417.533 217.334 413.533 220.934 409C224.4 404.467 228.266 399.4 229.333 397.8C230.4 396.199 234.534 390.6 238.4 385.4C245.867 375.4 246.266 373.533 243.866 362.067C240.8 347.934 247.467 328.467 260.667 312.867C271.6 300.067 274.667 293.267 274.667 282.2C274.667 271.133 271.467 263.267 261.467 249.667C255.067 240.867 252.933 235.667 256 235.667C259.067 235.667 280.134 267 280.667 272.334C280.667 273.001 281.2 275.668 281.866 278.067C282.533 280.734 282.266 284.867 281.333 288.733C279.733 294.867 279.867 295.267 285.733 306.6L291.6 318.067L303.2 304.867L314.934 291.667L306.8 279.134C302.266 272.2 298.667 266.2 298.667 265.8C298.666 264.064 289.867 246.467 286.4 241.4C284.4 238.334 282.667 235.4 282.667 235C282.666 234.466 279.466 230.733 275.733 226.733C266.8 217.4 258.534 213.4 244.134 211.533C230.801 209.666 224.667 207 218.934 200.334C215.334 196.334 214.667 194.466 214.667 189C214.667 185.267 215.334 181.133 216.134 179.8C217.467 177.8 217.066 176.333 213.6 171.4C208.933 164.734 205.067 154.6 206.667 153.667C207.2 153.267 208.4 155 209.467 157.4C212.267 164.6 215.733 168.6 221.6 171.667C224.8 173.4 228.8 175.533 230.667 176.467C232.534 177.533 236.533 178.334 239.6 178.334C244.4 178.334 245.6 177.667 249.2 173.134C251.867 169.667 252.933 167.533 252 167C251.2 166.466 250.8 165.267 251.2 164.2C251.6 163.267 251.2 161.933 250.4 161.533C249.467 160.866 251.6 159.534 255.467 158.334C261.467 156.334 262 155.8 262.4 151.4C262.667 147.934 263.6 146.333 266.134 145.266C269.6 143.533 270.4 139.533 267.6 136.733C264.8 133.799 264.8 119.8 267.733 111C272.8 95.8001 272.533 92.4667 264.934 81.4002ZM276.934 302.334C276.667 302.334 274.667 304.867 272.4 307.933C270.134 311.133 266.933 315.133 265.333 317C260.133 322.866 253.2 336.867 251.333 344.733C249.2 353.399 248.934 369.398 250.8 368.334C251.466 367.934 255.333 362.866 259.6 357.266C263.866 351.666 272 341.4 277.733 334.6C283.466 327.801 287.866 321.535 287.467 320.6C287.067 319.667 285.2 316.6 283.333 313.667C281.6 310.733 279.467 307 278.667 305.266C278.001 303.667 277.2 302.335 276.934 302.334ZM216.934 235.266C215.067 230.2 223.601 238.067 229.867 247.4C238.267 259.933 240.4 266.734 239.733 279.4C238.667 301.933 226.667 314.334 206 314.334C194.267 314.334 187.867 311.533 178.134 301.933C171.2 295.267 161.867 282.733 162.934 281.667C163.201 281.401 168.401 285.934 174.533 291.8C187.467 304.333 193.6 307.533 204.4 307.667C216.267 307.667 225.334 301.8 231.467 290.2C233.733 285.667 233.733 269.8 231.467 263.266C229.6 258.066 223.2 245.533 220 241C218.8 239.133 217.334 236.6 216.934 235.266Z" fill="#A337E8"/>
</svg>
